<mxfile host="65bd71144e">
    <diagram id="Ar6_AYUL0OeyDCbF2AG9" name="ページ1">
        <mxGraphModel dx="1446" dy="1116" grid="1" gridSize="10" guides="1" tooltips="1" connect="1" arrows="1" fold="1" page="1" pageScale="1" pageWidth="827" pageHeight="583" math="0" shadow="0">
            <root>
                <mxCell id="0"/>
                <mxCell id="1" parent="0"/>
                <mxCell id="437" value="ItemDetail.vue" style="swimlane;fontStyle=1;align=center;verticalAlign=top;childLayout=stackLayout;horizontal=1;startSize=26;horizontalStack=0;resizeParent=1;resizeParentMax=0;resizeLast=0;collapsible=1;marginBottom=0;" parent="1" vertex="1">
                    <mxGeometry x="414" y="80" width="300" height="200" as="geometry"/>
                </mxCell>
                <mxCell id="438" value="+currentItem:Item&#10;+toppingIdList:Array&lt;number&gt;&#10;+size:string&#10;+quantity:number" style="text;strokeColor=none;fillColor=none;align=left;verticalAlign=top;spacingLeft=4;spacingRight=4;overflow=hidden;rotatable=0;points=[[0,0.5],[1,0.5]];portConstraint=eastwest;" parent="437" vertex="1">
                    <mxGeometry y="26" width="300" height="74" as="geometry"/>
                </mxCell>
                <mxCell id="439" value="" style="line;strokeWidth=1;fillColor=none;align=left;verticalAlign=middle;spacingTop=-1;spacingLeft=3;spacingRight=3;rotatable=0;labelPosition=right;points=[];portConstraint=eastwest;" parent="437" vertex="1">
                    <mxGeometry y="100" width="300" height="10" as="geometry"/>
                </mxCell>
                <mxCell id="440" value="+async created():Promise&lt;void&gt;&#10;+get itemTotalPrice():void&#10;+putInCart():void" style="text;strokeColor=none;fillColor=none;align=left;verticalAlign=top;spacingLeft=4;spacingRight=4;overflow=hidden;rotatable=0;points=[[0,0.5],[1,0.5]];portConstraint=eastwest;" parent="437" vertex="1">
                    <mxGeometry y="110" width="300" height="90" as="geometry"/>
                </mxCell>
                <mxCell id="445" value="ItemList.vue&#10;" style="swimlane;fontStyle=1;align=center;verticalAlign=top;childLayout=stackLayout;horizontal=1;startSize=22;horizontalStack=0;resizeParent=1;resizeParentMax=0;resizeLast=0;collapsible=1;marginBottom=0;" parent="1" vertex="1">
                    <mxGeometry x="200" y="80" width="190" height="138" as="geometry"/>
                </mxCell>
                <mxCell id="446" value="+searchItemName:string&#10;+currentItemList:Array&lt;Item&gt;()" style="text;strokeColor=none;fillColor=none;align=left;verticalAlign=top;spacingLeft=4;spacingRight=4;overflow=hidden;rotatable=0;points=[[0,0.5],[1,0.5]];portConstraint=eastwest;" parent="445" vertex="1">
                    <mxGeometry y="22" width="190" height="46" as="geometry"/>
                </mxCell>
                <mxCell id="447" value="" style="line;strokeWidth=1;fillColor=none;align=left;verticalAlign=middle;spacingTop=-1;spacingLeft=3;spacingRight=3;rotatable=0;labelPosition=right;points=[];portConstraint=eastwest;" parent="445" vertex="1">
                    <mxGeometry y="68" width="190" height="8" as="geometry"/>
                </mxCell>
                <mxCell id="448" value="+async created():Promise&lt;void&gt;&#10;+searchItems():void" style="text;strokeColor=none;fillColor=none;align=left;verticalAlign=top;spacingLeft=4;spacingRight=4;overflow=hidden;rotatable=0;points=[[0,0.5],[1,0.5]];portConstraint=eastwest;" parent="445" vertex="1">
                    <mxGeometry y="76" width="190" height="62" as="geometry"/>
                </mxCell>
                <mxCell id="449" value="RegisterUser.vue" style="swimlane;fontStyle=1;align=center;verticalAlign=top;childLayout=stackLayout;horizontal=1;startSize=26;horizontalStack=0;resizeParent=1;resizeParentMax=0;resizeLast=0;collapsible=1;marginBottom=0;" parent="1" vertex="1">
                    <mxGeometry x="-280" y="-40" width="240" height="210" as="geometry"/>
                </mxCell>
                <mxCell id="450" value="+ lastName:string&#10;+ firstName:string&#10;+ mailAddress:string&#10;+ zipCode:number&#10;+ address:string&#10;+ telephone:number&#10;+ password:string&#10;+ confirmationPassword:string&#10;+ error:Array&lt;string&gt;()" style="text;strokeColor=none;fillColor=none;align=left;verticalAlign=top;spacingLeft=4;spacingRight=4;overflow=hidden;rotatable=0;points=[[0,0.5],[1,0.5]];portConstraint=eastwest;" parent="449" vertex="1">
                    <mxGeometry y="26" width="240" height="134" as="geometry"/>
                </mxCell>
                <mxCell id="451" value="" style="line;strokeWidth=1;fillColor=none;align=left;verticalAlign=middle;spacingTop=-1;spacingLeft=3;spacingRight=3;rotatable=0;labelPosition=right;points=[];portConstraint=eastwest;" parent="449" vertex="1">
                    <mxGeometry y="160" width="240" height="8" as="geometry"/>
                </mxCell>
                <mxCell id="452" value="+ async registerUser():Promise&lt;void&gt;&#10;+ async searchAddress():Promise&lt;void&gt;" style="text;strokeColor=none;fillColor=none;align=left;verticalAlign=top;spacingLeft=4;spacingRight=4;overflow=hidden;rotatable=0;points=[[0,0.5],[1,0.5]];portConstraint=eastwest;" parent="449" vertex="1">
                    <mxGeometry y="168" width="240" height="42" as="geometry"/>
                </mxCell>
                <mxCell id="461" value="CartList.vue" style="swimlane;fontStyle=1;align=center;verticalAlign=top;childLayout=stackLayout;horizontal=1;startSize=26;horizontalStack=0;resizeParent=1;resizeParentMax=0;resizeLast=0;collapsible=1;marginBottom=0;" parent="1" vertex="1">
                    <mxGeometry x="490" y="310" width="220" height="116" as="geometry"/>
                </mxCell>
                <mxCell id="463" value="" style="line;strokeWidth=1;fillColor=none;align=left;verticalAlign=middle;spacingTop=-1;spacingLeft=3;spacingRight=3;rotatable=0;labelPosition=right;points=[];portConstraint=eastwest;" parent="461" vertex="1">
                    <mxGeometry y="26" width="220" height="8" as="geometry"/>
                </mxCell>
                <mxCell id="464" value="+ deleteCartItem(cartItemIndex):void&#10;+ get UserOderInfo:Order" style="text;strokeColor=none;fillColor=none;align=left;verticalAlign=top;spacingLeft=4;spacingRight=4;overflow=hidden;rotatable=0;points=[[0,0.5],[1,0.5]];portConstraint=eastwest;" parent="461" vertex="1">
                    <mxGeometry y="34" width="220" height="82" as="geometry"/>
                </mxCell>
                <mxCell id="469" value="OrderConfirm.vue&#10;" style="swimlane;fontStyle=1;align=center;verticalAlign=top;childLayout=stackLayout;horizontal=1;startSize=30;horizontalStack=0;resizeParent=1;resizeParentMax=0;resizeLast=0;collapsible=1;marginBottom=0;" parent="1" vertex="1">
                    <mxGeometry x="490" y="490" width="220" height="240" as="geometry"/>
                </mxCell>
                <mxCell id="470" value="+ name:string&#10;+ mailAddress:string&#10;+ zipCode:number&#10;+ address:string&#10;+ telephone:number&#10;+ itemTotalPrice:number&#10;+ deliveryDate:date&#10;+ deliveryHour:number&#10;+ paymentMethod:number" style="text;strokeColor=none;fillColor=none;align=left;verticalAlign=top;spacingLeft=4;spacingRight=4;overflow=hidden;rotatable=0;points=[[0,0.5],[1,0.5]];portConstraint=eastwest;" parent="469" vertex="1">
                    <mxGeometry y="30" width="220" height="140" as="geometry"/>
                </mxCell>
                <mxCell id="471" value="" style="line;strokeWidth=1;fillColor=none;align=left;verticalAlign=middle;spacingTop=-1;spacingLeft=3;spacingRight=3;rotatable=0;labelPosition=right;points=[];portConstraint=eastwest;" parent="469" vertex="1">
                    <mxGeometry y="170" width="220" height="8" as="geometry"/>
                </mxCell>
                <mxCell id="472" value="+ async orderConfirm():Promise&lt;void&gt;&#10;+ get deliveryTime(): date&#10;+ created():void" style="text;strokeColor=none;fillColor=none;align=left;verticalAlign=top;spacingLeft=4;spacingRight=4;overflow=hidden;rotatable=0;points=[[0,0.5],[1,0.5]];portConstraint=eastwest;" parent="469" vertex="1">
                    <mxGeometry y="178" width="220" height="62" as="geometry"/>
                </mxCell>
                <mxCell id="473" value="OrderFinished.vue&#10;" style="swimlane;fontStyle=1;align=center;verticalAlign=top;childLayout=stackLayout;horizontal=1;startSize=21;horizontalStack=0;resizeParent=1;resizeParentMax=0;resizeLast=0;collapsible=1;marginBottom=0;" parent="1" vertex="1">
                    <mxGeometry x="230" y="699" width="220" height="81" as="geometry"/>
                </mxCell>
                <mxCell id="474" value="+" style="text;strokeColor=none;fillColor=none;align=left;verticalAlign=top;spacingLeft=4;spacingRight=4;overflow=hidden;rotatable=0;points=[[0,0.5],[1,0.5]];portConstraint=eastwest;" parent="473" vertex="1">
                    <mxGeometry y="21" width="220" height="26" as="geometry"/>
                </mxCell>
                <mxCell id="475" value="" style="line;strokeWidth=1;fillColor=none;align=left;verticalAlign=middle;spacingTop=-1;spacingLeft=3;spacingRight=3;rotatable=0;labelPosition=right;points=[];portConstraint=eastwest;" parent="473" vertex="1">
                    <mxGeometry y="47" width="220" height="8" as="geometry"/>
                </mxCell>
                <mxCell id="476" value="+ moveToTopScreen():void" style="text;strokeColor=none;fillColor=none;align=left;verticalAlign=top;spacingLeft=4;spacingRight=4;overflow=hidden;rotatable=0;points=[[0,0.5],[1,0.5]];portConstraint=eastwest;" parent="473" vertex="1">
                    <mxGeometry y="55" width="220" height="26" as="geometry"/>
                </mxCell>
                <mxCell id="477" value="Login.vue&#10;" style="swimlane;fontStyle=1;align=center;verticalAlign=top;childLayout=stackLayout;horizontal=1;startSize=26;horizontalStack=0;resizeParent=1;resizeParentMax=0;resizeLast=0;collapsible=1;marginBottom=0;" parent="1" vertex="1">
                    <mxGeometry y="80" width="160" height="120" as="geometry"/>
                </mxCell>
                <mxCell id="478" value="+ mailAddress:string&#10;+password:string&#10;+errorArray&lt;string&gt;()" style="text;strokeColor=none;fillColor=none;align=left;verticalAlign=top;spacingLeft=4;spacingRight=4;overflow=hidden;rotatable=0;points=[[0,0.5],[1,0.5]];portConstraint=eastwest;" parent="477" vertex="1">
                    <mxGeometry y="26" width="160" height="54" as="geometry"/>
                </mxCell>
                <mxCell id="479" value="" style="line;strokeWidth=1;fillColor=none;align=left;verticalAlign=middle;spacingTop=-1;spacingLeft=3;spacingRight=3;rotatable=0;labelPosition=right;points=[];portConstraint=eastwest;" parent="477" vertex="1">
                    <mxGeometry y="80" width="160" height="8" as="geometry"/>
                </mxCell>
                <mxCell id="480" value="+ login():void" style="text;strokeColor=none;fillColor=none;align=left;verticalAlign=top;spacingLeft=4;spacingRight=4;overflow=hidden;rotatable=0;points=[[0,0.5],[1,0.5]];portConstraint=eastwest;" parent="477" vertex="1">
                    <mxGeometry y="88" width="160" height="32" as="geometry"/>
                </mxCell>
                <mxCell id="489" value="Vuexストア(index.ts)" style="swimlane;fontStyle=1;align=center;verticalAlign=top;childLayout=stackLayout;horizontal=1;startSize=26;horizontalStack=0;resizeParent=1;resizeParentMax=0;resizeLast=0;collapsible=1;marginBottom=0;" parent="1" vertex="1">
                    <mxGeometry x="-280" y="260" width="290" height="250" as="geometry"/>
                </mxCell>
                <mxCell id="490" value="+itemList:Array&lt;Item&gt;()&#10;+userOrderInfo:Order" style="text;strokeColor=none;fillColor=none;align=left;verticalAlign=top;spacingLeft=4;spacingRight=4;overflow=hidden;rotatable=0;points=[[0,0.5],[1,0.5]];portConstraint=eastwest;" parent="489" vertex="1">
                    <mxGeometry y="26" width="290" height="44" as="geometry"/>
                </mxCell>
                <mxCell id="491" value="" style="line;strokeWidth=1;fillColor=none;align=left;verticalAlign=middle;spacingTop=-1;spacingLeft=3;spacingRight=3;rotatable=0;labelPosition=right;points=[];portConstraint=eastwest;" parent="489" vertex="1">
                    <mxGeometry y="70" width="290" height="8" as="geometry"/>
                </mxCell>
                <mxCell id="492" value="+getItemList(context)(actions)&#10;&#10;+setItemList(state,payload)(mutations)&#10;+putInCart(state,payload)(mutations)&#10;+deleteCartItem(state,payload)(mutations)&#10;&#10;+getSearchedItemList(state):Array&lt;Item&gt;(getters)&#10;+getCartItems:Array&lt;OrderItem&gt;(getters)&#10;+getItemList(state)(getters)&#10;+getUserOderInfo(state)(getters)" style="text;strokeColor=none;fillColor=none;align=left;verticalAlign=top;spacingLeft=4;spacingRight=4;overflow=hidden;rotatable=0;points=[[0,0.5],[1,0.5]];portConstraint=eastwest;" parent="489" vertex="1">
                    <mxGeometry y="78" width="290" height="172" as="geometry"/>
                </mxCell>
                <mxCell id="493" value="Use" style="endArrow=open;endSize=12;dashed=1;html=1;exitX=0.995;exitY=0.188;exitDx=0;exitDy=0;exitPerimeter=0;entryX=0;entryY=0.5;entryDx=0;entryDy=0;" parent="1" source="450" target="498" edge="1">
                    <mxGeometry width="160" relative="1" as="geometry">
                        <mxPoint x="140" y="169.5" as="sourcePoint"/>
                        <mxPoint x="160" y="120" as="targetPoint"/>
                        <Array as="points"/>
                    </mxGeometry>
                </mxCell>
                <mxCell id="498" value="&lt;p style=&quot;margin: 0px ; margin-top: 4px ; text-align: center&quot;&gt;&lt;b&gt;ユーザ登録外部WebAPI&lt;/b&gt;&lt;/p&gt;&lt;hr size=&quot;1&quot;&gt;&lt;div style=&quot;height: 2px&quot;&gt;POST (name,email,password,zipcode&lt;/div&gt;&lt;div style=&quot;height: 2px&quot;&gt;&lt;span&gt;&lt;br&gt;&lt;/span&gt;&lt;/div&gt;&lt;div style=&quot;height: 2px&quot;&gt;&lt;span&gt;&lt;br&gt;&lt;/span&gt;&lt;/div&gt;&lt;div style=&quot;height: 2px&quot;&gt;&lt;span&gt;&lt;br&gt;&lt;/span&gt;&lt;/div&gt;&lt;div style=&quot;height: 2px&quot;&gt;&lt;span&gt;&lt;br&gt;&lt;/span&gt;&lt;/div&gt;&lt;div style=&quot;height: 2px&quot;&gt;&lt;span&gt;&lt;br&gt;&lt;/span&gt;&lt;/div&gt;&lt;div style=&quot;height: 2px&quot;&gt;&lt;span&gt;&lt;br&gt;&lt;/span&gt;&lt;/div&gt;&lt;div style=&quot;height: 2px&quot;&gt;&lt;span&gt;address,telephone):json&lt;/span&gt;&lt;/div&gt;" style="verticalAlign=top;align=left;overflow=fill;fontSize=12;fontFamily=Helvetica;html=1;" parent="1" vertex="1">
                    <mxGeometry x="10" y="-40" width="250" height="73" as="geometry"/>
                </mxCell>
                <mxCell id="920" value="&lt;p style=&quot;margin: 0px ; margin-top: 4px ; text-align: center&quot;&gt;&lt;b&gt;ログイン実行外部WebAPI&lt;/b&gt;&lt;/p&gt;&lt;hr size=&quot;1&quot;&gt;&lt;div style=&quot;height: 2px&quot;&gt;POST(email,password&lt;span&gt;):json&lt;/span&gt;&lt;/div&gt;&lt;div style=&quot;height: 2px&quot;&gt;&lt;span&gt;&lt;br&gt;&lt;/span&gt;&lt;/div&gt;" style="verticalAlign=top;align=left;overflow=fill;fontSize=12;fontFamily=Helvetica;html=1;" parent="1" vertex="1">
                    <mxGeometry x="300" y="-40" width="160" height="60" as="geometry"/>
                </mxCell>
                <mxCell id="923" value="Use" style="endArrow=open;endSize=12;dashed=1;html=1;exitX=0.398;exitY=0.063;exitDx=0;exitDy=0;exitPerimeter=0;" parent="1" edge="1">
                    <mxGeometry width="160" relative="1" as="geometry">
                        <mxPoint x="157.30000000000018" y="80.08699999999999" as="sourcePoint"/>
                        <mxPoint x="300" y="20" as="targetPoint"/>
                    </mxGeometry>
                </mxCell>
                <mxCell id="924" value="&lt;p style=&quot;margin: 0px ; margin-top: 4px ; text-align: center&quot;&gt;&lt;b&gt;商品1件取得外部WebAPI&lt;/b&gt;&lt;/p&gt;&lt;hr size=&quot;1&quot;&gt;&lt;div style=&quot;height: 2px&quot;&gt;GET(itemid&lt;span&gt;):json&lt;/span&gt;&lt;/div&gt;" style="verticalAlign=top;align=left;overflow=fill;fontSize=12;fontFamily=Helvetica;html=1;" parent="1" vertex="1">
                    <mxGeometry x="510" y="-36.5" width="190" height="66" as="geometry"/>
                </mxCell>
                <mxCell id="926" value="Use" style="endArrow=open;endSize=12;dashed=1;html=1;entryX=0.5;entryY=1;entryDx=0;entryDy=0;" parent="1" target="924" edge="1">
                    <mxGeometry width="160" relative="1" as="geometry">
                        <mxPoint x="530" y="80" as="sourcePoint"/>
                        <mxPoint x="590" y="110" as="targetPoint"/>
                    </mxGeometry>
                </mxCell>
                <mxCell id="927" value="&lt;p style=&quot;margin: 0px ; margin-top: 4px ; text-align: center&quot;&gt;&lt;b&gt;注文をする外部WebAPI&lt;/b&gt;&lt;/p&gt;&lt;hr size=&quot;1&quot;&gt;&lt;div style=&quot;height: 2px&quot;&gt;POST(userId,status,totalPrice,&lt;/div&gt;&lt;div style=&quot;height: 2px&quot;&gt;&lt;br&gt;&lt;/div&gt;&lt;div style=&quot;height: 2px&quot;&gt;&lt;br&gt;&lt;/div&gt;&lt;div style=&quot;height: 2px&quot;&gt;&lt;br&gt;&lt;/div&gt;&lt;div style=&quot;height: 2px&quot;&gt;&lt;br&gt;&lt;/div&gt;&lt;div style=&quot;height: 2px&quot;&gt;&lt;br&gt;&lt;/div&gt;&lt;div style=&quot;height: 2px&quot;&gt;destinationName,destinationEmail,&lt;/div&gt;&lt;div style=&quot;height: 2px&quot;&gt;&lt;br&gt;&lt;/div&gt;&lt;div style=&quot;height: 2px&quot;&gt;&lt;br&gt;&lt;/div&gt;&lt;div style=&quot;height: 2px&quot;&gt;&lt;br&gt;&lt;/div&gt;&lt;div style=&quot;height: 2px&quot;&gt;&lt;br&gt;&lt;/div&gt;&lt;div style=&quot;height: 2px&quot;&gt;&lt;br&gt;&lt;/div&gt;&lt;div style=&quot;height: 2px&quot;&gt;&lt;br&gt;&lt;/div&gt;&lt;div style=&quot;height: 2px&quot;&gt;destinationZupcode,destinationAddress,&lt;/div&gt;&lt;div style=&quot;height: 2px&quot;&gt;&lt;br&gt;&lt;/div&gt;&lt;div style=&quot;height: 2px&quot;&gt;&lt;br&gt;&lt;/div&gt;&lt;div style=&quot;height: 2px&quot;&gt;&lt;br&gt;&lt;/div&gt;&lt;div style=&quot;height: 2px&quot;&gt;&lt;br&gt;&lt;/div&gt;&lt;div style=&quot;height: 2px&quot;&gt;&lt;br&gt;&lt;/div&gt;&lt;div style=&quot;height: 2px&quot;&gt;&lt;br&gt;&lt;/div&gt;&lt;div style=&quot;height: 2px&quot;&gt;destinationTel,delivaryTime,&lt;/div&gt;&lt;div style=&quot;height: 2px&quot;&gt;&lt;br&gt;&lt;/div&gt;&lt;div style=&quot;height: 2px&quot;&gt;&lt;br&gt;&lt;/div&gt;&lt;div style=&quot;height: 2px&quot;&gt;&lt;br&gt;&lt;/div&gt;&lt;div style=&quot;height: 2px&quot;&gt;&lt;br&gt;&lt;/div&gt;&lt;div style=&quot;height: 2px&quot;&gt;&lt;br&gt;&lt;/div&gt;&lt;div style=&quot;height: 2px&quot;&gt;paymentMethod,orderItemFromList&lt;/div&gt;&lt;div style=&quot;height: 2px&quot;&gt;&lt;br&gt;&lt;/div&gt;&lt;div style=&quot;height: 2px&quot;&gt;&lt;br&gt;&lt;/div&gt;&lt;div style=&quot;height: 2px&quot;&gt;&lt;br&gt;&lt;/div&gt;&lt;div style=&quot;height: 2px&quot;&gt;&lt;br&gt;&lt;/div&gt;&lt;div style=&quot;height: 2px&quot;&gt;&lt;br&gt;&lt;/div&gt;&lt;div style=&quot;height: 2px&quot;&gt;&lt;br&gt;&lt;/div&gt;&lt;div style=&quot;height: 2px&quot;&gt;itemId,quantity,size,&lt;/div&gt;&lt;div style=&quot;height: 2px&quot;&gt;&lt;br&gt;&lt;/div&gt;&lt;div style=&quot;height: 2px&quot;&gt;&lt;br&gt;&lt;/div&gt;&lt;div style=&quot;height: 2px&quot;&gt;&lt;br&gt;&lt;/div&gt;&lt;div style=&quot;height: 2px&quot;&gt;&lt;br&gt;&lt;/div&gt;&lt;div style=&quot;height: 2px&quot;&gt;&lt;br&gt;&lt;/div&gt;&lt;div style=&quot;height: 2px&quot;&gt;&lt;br&gt;&lt;/div&gt;&lt;div style=&quot;height: 2px&quot;&gt;orderToppingFormList,toppingId):json&lt;/div&gt;" style="verticalAlign=top;align=left;overflow=fill;fontSize=12;fontFamily=Helvetica;html=1;" parent="1" vertex="1">
                    <mxGeometry x="185" y="478" width="220" height="150" as="geometry"/>
                </mxCell>
                <mxCell id="928" style="edgeStyle=none;html=1;exitX=0;exitY=0.5;exitDx=0;exitDy=0;" parent="1" source="478" edge="1">
                    <mxGeometry relative="1" as="geometry">
                        <mxPoint x="1.1428571428573377" y="134" as="targetPoint"/>
                    </mxGeometry>
                </mxCell>
                <mxCell id="929" value="dispatch" style="html=1;verticalAlign=bottom;startArrow=oval;startFill=1;endArrow=block;startSize=8;entryX=0.989;entryY=-0.194;entryDx=0;entryDy=0;entryPerimeter=0;" parent="1" target="490" edge="1">
                    <mxGeometry width="60" relative="1" as="geometry">
                        <mxPoint x="200" y="220" as="sourcePoint"/>
                        <mxPoint x="330" y="240" as="targetPoint"/>
                    </mxGeometry>
                </mxCell>
                <mxCell id="930" value="Use" style="endArrow=open;endSize=12;dashed=1;html=1;entryX=1;entryY=0.5;entryDx=0;entryDy=0;" parent="1" target="927" edge="1">
                    <mxGeometry width="160" relative="1" as="geometry">
                        <mxPoint x="490" y="562" as="sourcePoint"/>
                        <mxPoint x="460" y="480" as="targetPoint"/>
                    </mxGeometry>
                </mxCell>
                <mxCell id="931" value="&lt;p style=&quot;margin: 0px ; margin-top: 4px ; text-align: center&quot;&gt;&lt;b&gt;商品一覧取得外部WebAPI&lt;/b&gt;&lt;/p&gt;&lt;hr size=&quot;1&quot;&gt;&lt;div style=&quot;height: 2px&quot;&gt;GET(type)&lt;/div&gt;" style="verticalAlign=top;align=left;overflow=fill;fontSize=12;fontFamily=Helvetica;html=1;" parent="1" vertex="1">
                    <mxGeometry x="-285.07" y="562" width="190" height="66" as="geometry"/>
                </mxCell>
                <mxCell id="932" value="Use" style="endArrow=open;endSize=12;dashed=1;html=1;entryX=0.5;entryY=0;entryDx=0;entryDy=0;" parent="1" source="492" target="931" edge="1">
                    <mxGeometry width="160" relative="1" as="geometry">
                        <mxPoint x="-44.93725663716833" y="480" as="sourcePoint"/>
                        <mxPoint x="-10.069999999999993" y="503" as="targetPoint"/>
                    </mxGeometry>
                </mxCell>
                <mxCell id="933" value="&lt;p style=&quot;margin: 0px ; margin-top: 4px ; text-align: center&quot;&gt;&lt;b&gt;トッピング一覧取得外部WebAPI&lt;/b&gt;&lt;/p&gt;&lt;hr size=&quot;1&quot;&gt;&lt;div style=&quot;height: 2px&quot;&gt;GET(type&lt;span&gt;):json&lt;/span&gt;&lt;/div&gt;" style="verticalAlign=top;align=left;overflow=fill;fontSize=12;fontFamily=Helvetica;html=1;" parent="1" vertex="1">
                    <mxGeometry x="590" y="-106" width="190" height="66" as="geometry"/>
                </mxCell>
                <mxCell id="934" value="Use" style="endArrow=open;endSize=12;dashed=1;html=1;entryX=0.845;entryY=1.022;entryDx=0;entryDy=0;entryPerimeter=0;" parent="1" target="933" edge="1">
                    <mxGeometry width="160" relative="1" as="geometry">
                        <mxPoint x="670" y="80" as="sourcePoint"/>
                        <mxPoint x="745" y="29.5" as="targetPoint"/>
                    </mxGeometry>
                </mxCell>
                <mxCell id="935" value="Use" style="endArrow=open;endSize=12;dashed=1;html=1;exitX=0;exitY=0.5;exitDx=0;exitDy=0;" parent="1" source="440" target="492" edge="1">
                    <mxGeometry width="160" relative="1" as="geometry">
                        <mxPoint x="40.000000000000185" y="330.087" as="sourcePoint"/>
                        <mxPoint x="182.7" y="270" as="targetPoint"/>
                    </mxGeometry>
                </mxCell>
                <mxCell id="936" value="Use" style="endArrow=open;endSize=12;dashed=1;html=1;exitX=-0.003;exitY=0.375;exitDx=0;exitDy=0;exitPerimeter=0;entryX=0.996;entryY=0.679;entryDx=0;entryDy=0;entryPerimeter=0;" parent="1" source="464" target="492" edge="1">
                    <mxGeometry width="160" relative="1" as="geometry">
                        <mxPoint x="424" y="245" as="sourcePoint"/>
                        <mxPoint x="20.000000000000227" y="365.6848816029144" as="targetPoint"/>
                    </mxGeometry>
                </mxCell>
            </root>
        </mxGraphModel>
    </diagram>
</mxfile>